<svg width="15" height="15" viewBox="0 0 15 15" fill="none" xmlns="http://www.w3.org/2000/svg">
<path fill-rule="evenodd" clip-rule="evenodd" d="M1.2522 0.623964C1.15369 0.622852 1.05544 0.650845 0.970683 0.706904C0.826911 0.802001 0.742261 0.964449 0.746686 1.13677L1.07968 14.1036C1.08677 14.3797 1.3163 14.5977 1.59236 14.5906C1.86841 14.5835 2.08644 14.354 2.07936 14.0779L1.76689 1.91066L14.0512 7.51071C14.3024 7.62525 14.599 7.51442 14.7135 7.26316C14.8281 7.01189 14.7172 6.71534 14.466 6.6008L3.54878 1.62396L7.98011 1.62396C8.25625 1.62396 8.48011 1.40011 8.48011 1.12396C8.48011 0.847821 8.25625 0.623964 7.98011 0.623964L1.2522 0.623964Z" fill="black"/>
</svg>
