<svg width="1001" height="139" viewBox="0 0 1001 139" fill="none" xmlns="http://www.w3.org/2000/svg">
<path fill-rule="evenodd" clip-rule="evenodd" d="M110.049 0.0887451V135.898H122.078V0.0887451H110.049ZM45.7729 138.614C69.4425 138.614 84.3815 125.227 86.7096 105.632H74.4868C72.5467 119.989 61.876 128.719 46.161 128.719C26.3717 128.719 13.5668 112.616 13.5668 88.9466C13.5668 66.4411 26.3717 49.756 46.549 49.756C61.2939 49.756 71.5766 59.2626 73.5167 72.6495H86.1276C83.7994 52.6662 67.8904 39.8613 46.743 39.8613C20.7453 39.8613 0.955994 60.0387 0.955994 88.9466C0.955994 119.989 20.5513 138.614 45.7729 138.614ZM209.903 120.377C205.053 130.659 194.188 138.614 178.473 138.614C160.624 138.614 147.237 127.943 147.237 111.258C147.237 94.1849 160.43 85.8424 177.309 83.1262L196.516 80.022C204.471 78.6639 209.709 76.3357 209.709 69.1573C209.709 57.3225 200.785 49.756 187.592 49.756C170.325 49.756 163.146 59.6507 162.37 71.4854H150.147C151.311 54.6063 164.116 39.8613 186.816 39.8613C209.127 39.8613 221.738 53.4422 221.738 73.4255V135.898H209.903V129.883V120.377ZM159.654 111.258C159.654 121.929 168.19 128.913 179.831 128.913C197.874 128.913 209.709 115.332 209.709 99.0352V83.9022C208.545 86.2304 204.083 88.1705 197.486 89.3346L180.801 92.2448C168.384 94.5729 159.654 100.005 159.654 111.258ZM289.805 138.614C313.474 138.614 328.413 125.227 330.741 105.632H318.518C316.578 119.989 305.908 128.719 290.193 128.719C270.403 128.719 257.598 112.616 257.598 88.9466C257.598 66.4411 270.403 49.756 290.581 49.756C305.326 49.756 315.608 59.2626 317.548 72.6495H330.159C327.831 52.6662 311.922 39.8613 290.775 39.8613C264.777 39.8613 244.988 60.0387 244.988 88.9466C244.988 119.989 264.583 138.614 289.805 138.614ZM427.223 42.5775L385.122 82.1561L434.208 135.898H417.522L376.586 90.1106L366.109 99.8113V135.898H354.08V0.0887451H366.109V85.8424C368.049 83.9029 370.16 81.9635 372.272 80.0241L372.273 80.0238L372.273 80.0235L372.273 80.0232L372.273 80.023L372.274 80.0227L372.274 80.0224L372.274 80.0221L372.275 80.0219C373.331 79.0518 374.387 78.0818 375.422 77.1118L411.702 42.5775H427.223ZM525.724 138.614C548.423 138.614 562.586 126.197 562.586 109.706C562.586 101.373 559.087 95.203 552.962 90.8687H592.199V113.392C592.199 131.435 603.064 137.644 615.869 137.644C619.555 137.644 622.659 137.062 626.151 136.286V125.809C623.629 126.391 621.301 126.779 618.585 126.779C610.048 126.779 604.422 123.675 604.422 112.616V90.8687H645.446V101.751C645.446 126.003 658.057 138.614 678.429 138.614C693.368 138.614 704.426 129.689 709.277 118.825V129.301V135.898H721.111V90.8687H745.959C746.637 119.954 764.45 138.614 788.234 138.614C802.009 138.614 814.813 131.823 821.216 118.825V128.913V135.898H833.439V90.8687H864.311V135.898H876.34V90.8687H901.133C901.844 119.227 920.061 138.614 945.734 138.614C971.408 138.614 989.811 119.227 990.529 90.8687H1000.96V82.1382H990.174C987.413 56.997 969.756 39.8613 945.734 39.8613C921.712 39.8613 904.219 56.997 901.485 82.1382H876.34V42.5775H864.311V82.1382H833.439V0.0887451H821.216V47.4278V59.2626C815.978 48.7859 804.919 39.8613 788.622 39.8613C765.172 39.8613 748.88 57.4289 746.298 82.1382H721.111V42.5775H709.083V82.1382H657.669V42.5775H645.446V82.1382H604.422V53.0542H624.793V42.5775H604.422V12.8936H592.199V42.5775H573.768V53.0542H592.199V82.1382H525.31L520.486 81.1861C509.621 79.0519 501.472 75.3657 501.472 65.859C501.472 56.1584 510.203 49.756 523.396 49.756C537.753 49.756 546.871 57.1285 548.229 68.7692H560.258C558.706 50.7261 545.513 39.8613 523.978 39.8613C503.607 39.8613 489.25 51.3081 489.25 66.4411C489.25 72.8287 491.544 78.0481 495.727 82.1382H478.393V90.8687H512.786C514.2 91.2373 515.668 91.5666 517.187 91.8568L530.962 94.5729C543.185 96.9011 550.558 101.169 550.558 110.676C550.558 121.735 541.051 128.719 525.724 128.719C508.845 128.719 498.95 119.795 498.174 106.214H486.339C487.309 125.615 501.666 138.614 525.724 138.614ZM657.669 90.8687V99.6173C657.669 117.466 663.878 128.719 680.951 128.719C698.8 128.719 709.083 113.004 709.083 93.2148V90.8687H657.669ZM758.379 90.8687C758.979 113.581 771.433 128.719 789.98 128.719C808.482 128.719 821.105 113.838 821.77 90.8687H758.379ZM821.441 82.1382H758.756C761.061 62.5573 773.139 49.756 790.368 49.756C807.666 49.756 819.299 62.3453 821.441 82.1382ZM913.55 90.8687C914.133 113.581 926.241 128.719 945.734 128.719C965.227 128.719 977.52 113.581 978.112 90.8687H913.55ZM977.739 82.1382H913.918C916.163 62.5573 927.983 49.756 945.734 49.756C963.486 49.756 975.461 62.5573 977.739 82.1382ZM863.341 24.5344H877.116V5.13308H863.341V24.5344Z" fill="black"/>
</svg>
