<svg width="25" height="25" viewBox="0 0 25 25" fill="none" xmlns="http://www.w3.org/2000/svg">
<path fill-rule="evenodd" clip-rule="evenodd" d="M11.75 23.9173C11.75 24.1934 11.9739 24.4173 12.25 24.4173C12.5261 24.4173 12.75 24.1934 12.75 23.9173L12.75 13.4571L20.1464 20.8536C20.3417 21.0488 20.6583 21.0488 20.8536 20.8536C21.0488 20.6583 21.0488 20.3417 20.8536 20.1464L13.4571 12.75H23.9173C24.1934 12.75 24.4173 12.5261 24.4173 12.25C24.4173 11.9739 24.1934 11.75 23.9173 11.75H13.4571L20.8536 4.35355C21.0488 4.15829 21.0488 3.84171 20.8536 3.64645C20.6583 3.45118 20.3417 3.45118 20.1464 3.64645L12.75 11.0429L12.75 0.582743C12.75 0.306601 12.5261 0.0827443 12.25 0.0827429C11.9739 0.0827443 11.75 0.306601 11.75 0.582744L11.75 11.0429L4.35355 3.64645C4.15829 3.45118 3.84171 3.45118 3.64645 3.64645C3.45118 3.84171 3.45118 4.15829 3.64645 4.35355L11.0429 11.75H0.582743C0.306601 11.75 0.0827443 11.9739 0.0827429 12.25C0.0827443 12.5261 0.306601 12.75 0.582743 12.75H11.0429L3.64645 20.1464C3.45118 20.3417 3.45118 20.6583 3.64645 20.8536C3.84171 21.0488 4.15829 21.0488 4.35355 20.8536L11.75 13.4571L11.75 23.9173Z" fill="#EB0C0C"/>
</svg>
