<?xml version="1.0" encoding="UTF-8"?>
<svg id="Ebene_2" xmlns="http://www.w3.org/2000/svg" viewBox="0 0 3625.65 521.22" width="3625.65" height="521.22">
<defs>
<style>.cls-1{stroke-width:0px;}</style>
</defs>
<g id="Ebene_1-2">
<path class="cls-1" d="m242.36,459.9c-18.5,15.58-42.34,23.36-71.54,23.36-24.34,0-45.62-6.32-63.88-18.98-18.25-12.65-32.49-30.17-42.71-52.56-10.22-22.38-15.33-48.18-15.33-77.38,0-20.92,2.92-40.26,8.76-58.04,5.84-17.76,14.11-33.21,24.82-46.36,10.7-13.14,23.6-23.36,38.69-30.66,15.08-7.3,31.87-10.95,50.37-10.95,27.74,0,50.61,7.92,68.62,23.72,18,15.82,28.71,36.13,32.12,60.96h48.91c-2.44-25.3-10.47-47.08-24.09-65.33-13.63-18.25-31.03-32.49-52.2-42.71s-45.15-15.33-71.9-15.33c-24.82,0-47.7,4.5-68.62,13.5-20.93,9.01-39.18,21.66-54.75,37.96-15.58,16.31-27.74,35.77-36.5,58.4S0,307.09,0,334.34c0,39.42,7.54,73.12,22.63,101.1,15.08,27.99,35.4,49.28,60.95,63.88,25.55,14.6,54.13,21.9,85.78,21.9,29.68,0,55.72-5.24,78.11-15.7,22.38-10.46,40.02-25.06,52.92-43.8,12.89-18.73,20.55-40.52,23-65.33h-47.45c-3.9,26.77-15.09,47.94-33.58,63.51Z"/><polygon class="cls-1" points="375.95 0 375.95 40.88 375.95 470.12 375.95 511 424.13 511 424.13 470.12 424.13 0 400.04 0 375.95 0"/>
<path class="cls-1" d="m705.91,165.71c-19.47-10.7-43.32-16.06-71.54-16.06s-52.45,5.48-72.63,16.42c-20.2,10.95-35.77,25.44-46.72,43.44-10.95,18.01-17.41,37.72-19.35,59.13h48.18c.97-14.6,4.74-27.98,11.31-40.15,6.57-12.16,16.67-21.9,30.29-29.2,13.62-7.3,30.9-10.95,51.83-10.95,24.33,0,44.04,6.46,59.13,19.34,15.08,12.9,22.63,30.29,22.63,52.19,0,8.76-1.95,15.82-5.84,21.17-3.9,5.36-9.38,9.38-16.42,12.05-7.06,2.68-15.46,5-25.18,6.93l-73,10.95c-21.42,3.41-40.64,9.38-57.67,17.89-17.04,8.52-30.66,20.07-40.88,34.67-10.22,14.6-15.33,32.61-15.33,54.02s5.22,39.18,15.7,54.75c10.46,15.58,24.57,27.63,42.34,36.13,17.76,8.51,37.83,12.78,60.23,12.78,29.2,0,53.77-6.46,73.73-19.34,19.95-12.89,34.31-29.08,43.07-48.54v57.67h46.72v-235.06c0-25.3-5.24-47.32-15.69-66.06-10.47-18.73-25.44-33.46-44.9-44.17Zm13.14,207.32c0,20.44-4.63,38.94-13.87,55.48-9.25,16.55-22.15,29.82-38.69,39.79-16.55,9.98-35.77,14.96-57.67,14.96s-39.79-5.95-53.66-17.88c-13.87-11.92-20.8-27.85-20.8-47.82,0-13.62,3.29-25.18,9.85-34.67,6.57-9.49,15.81-17.16,27.74-23,11.92-5.84,25.42-9.97,40.51-12.41l62.05-10.95c12.16-2.43,22.14-5.22,29.93-8.39,7.78-3.16,12.65-6.94,14.6-11.32v56.21Z"/>
<path class="cls-1" d="m1064.33,459.9c-18.5,15.58-42.34,23.36-71.54,23.36-24.34,0-45.62-6.32-63.88-18.98-18.25-12.65-32.49-30.17-42.71-52.56-10.22-22.38-15.33-48.18-15.33-77.38,0-20.92,2.92-40.26,8.76-58.04,5.84-17.76,14.11-33.21,24.82-46.36,10.7-13.14,23.6-23.36,38.69-30.66,15.08-7.3,31.87-10.95,50.37-10.95,27.74,0,50.61,7.92,68.62,23.72,18,15.82,28.71,36.13,32.12,60.96h48.91c-2.44-25.3-10.47-47.08-24.09-65.33-13.63-18.25-31.03-32.49-52.2-42.71s-45.15-15.33-71.9-15.33c-24.82,0-47.7,4.5-68.62,13.5-20.93,9.01-39.18,21.66-54.75,37.96-15.58,16.31-27.74,35.77-36.5,58.4s-13.14,47.58-13.14,74.83c0,39.42,7.54,73.12,22.63,101.1,15.08,27.99,35.4,49.28,60.95,63.88,25.55,14.6,54.13,21.9,85.78,21.9,29.68,0,55.72-5.24,78.11-15.7,22.38-10.46,40.02-25.06,52.92-43.8,12.89-18.73,20.55-40.52,23-65.33h-47.45c-3.9,26.77-15.09,47.94-33.58,63.51Z"/><path class="cls-1" d="m1478.24,159.87h-60.59l-135.05,129.21c-5.84,4.87-11.57,9.98-17.15,15.33-5.6,5.36-11.08,10.95-16.43,16.79V0h-48.18v511h48.18v-135.05l37.91-35.74,151.89,170.79h64.97l-183.38-202.35,157.83-148.78Z"/><rect class="cls-1" x="3137.51" y="18.98" width="54.75" height="73"/><path class="cls-1" d="m3625.65,311.9h-40.23c-2.44-27.12-9.26-51.65-20.5-73.56-14.36-27.98-34.31-49.75-59.86-65.33-25.55-15.57-54.64-23.36-87.24-23.36-24.82,0-47.58,4.5-68.25,13.5-20.69,9.01-38.58,21.79-53.65,38.33-15.09,16.55-26.77,36.26-35.04,59.13-5.84,16.13-9.6,33.23-11.32,51.29h-60.22v-152.03h-48.18v152.03h-82.49V0h-48.18v221.19c-6.33-13.14-15.09-25.06-26.28-35.77-11.2-10.7-24.71-19.35-40.51-25.92-15.82-6.57-33.95-9.85-54.39-9.85-24.34,0-46.35,4.63-66.06,13.87-19.71,9.25-36.75,22.27-51.1,39.05-14.36,16.79-25.31,36.39-32.85,58.77-5.32,15.77-8.75,32.63-10.32,50.56h-58.66v-152.03h-47.45v152.03h-190.53v-152.03h-47.45v152.03h-129.94v-111.15h76.65v-40.88h-76.65V47.45h-48.18v112.42h-68.62v40.88h68.62v111.15h-203.88l-40.67-7.49c-13.14-2.92-25.07-6.57-35.77-10.95-10.71-4.38-19.11-10.22-25.18-17.52-6.09-7.3-9.12-16.79-9.12-28.47,0-18,7.41-32.36,22.26-43.07,14.84-10.7,34.42-16.06,58.77-16.06,26.76,0,48.29,6.21,64.6,18.62,16.3,12.41,25.42,29.56,27.38,51.46h47.45c-2.44-34.06-15.7-60.71-39.79-79.94-24.09-19.22-56.33-28.83-96.72-28.83-25.8,0-48.54,4.38-68.25,13.14s-35.17,20.69-46.36,35.77c-11.2,15.09-16.79,32.12-16.79,51.1,0,25.52,9.18,46.25,27.51,62.24h-68.91v41.23h182.61l15.74,3.1c23.36,4.38,41.25,11.07,53.66,20.07,12.41,9.01,18.61,22.27,18.61,39.79,0,20.44-8.28,36.75-24.82,48.91-16.55,12.17-38.94,18.25-67.16,18.25-31.15,0-55.61-7.67-73.37-23-17.77-15.33-27.38-35.64-28.83-60.96h-46.72c1.46,23.85,8.14,45.02,20.08,63.51,11.92,18.5,28.83,32.85,50.73,43.07,21.9,10.22,47.93,15.33,78.11,15.33s53.53-4.75,74.46-14.24c20.92-9.49,36.98-22.5,48.18-39.05,11.19-16.54,16.79-35.28,16.79-56.21,0-18.49-4.27-34.18-12.77-47.08-2.69-4.06-5.72-7.89-9.11-11.5h107.29v72.45c0,22.39,4.25,40.4,12.78,54.02,8.51,13.63,19.58,23.36,33.21,29.2,13.62,5.84,28.47,8.76,44.53,8.76,6.81,0,13.62-.49,20.44-1.46,6.81-.98,13.14-2.19,18.98-3.65v-40.88c-4.87.49-9.49,1.09-13.87,1.82s-9.25,1.1-14.6,1.1c-15.58,0-28.36-3.76-38.33-11.32-9.98-7.54-14.96-21.54-14.96-41.98v-68.07h129.94v29.38c0,30.18,4.98,55.61,14.96,76.29,9.97,20.69,24.2,36.26,42.71,46.72,18.49,10.46,40.63,15.7,66.43,15.7,18.49,0,35.28-3.17,50.37-9.49,15.08-6.32,28.11-15.08,39.06-26.28,10.95-11.19,19.34-23.36,25.18-36.5v62.05h46.72v-157.86h58.23c1.89,30.41,8.62,57.25,20.24,80.48,13.87,27.74,32.85,49.28,56.94,64.61s51.46,23,82.12,23c17.52,0,34.18-2.81,50-8.4,15.81-5.59,30.04-13.74,42.71-24.46,12.65-10.7,22.63-23.84,29.93-39.42v62.05h48.18v-157.86h82.49v157.86h48.18v-157.86h59.74c1.99,29.59,8.95,56.06,20.92,79.39,14.35,27.99,34.31,49.77,59.86,65.33,25.55,15.57,54.86,23.36,87.96,23.36s61.69-7.79,87.24-23.36c25.55-15.57,45.5-37.34,59.86-65.33,11.96-23.33,18.93-49.8,20.92-79.39h39.81v-41.23Zm-1014.83,105.66c-8.03,19.96-19.83,35.9-35.4,47.82-15.58,11.93-34.31,17.88-56.21,17.88s-37.72-4.38-50.37-13.14c-12.66-8.76-21.9-21.28-27.74-37.59-5.84-16.3-8.76-35.64-8.76-58.03v-21.35h190.5c-.29,23.73-4.28,45.21-12.02,64.42Zm181.03-159.87c9.97-21.9,23.96-38.93,41.98-51.1,18-12.16,38.69-18.25,62.05-18.25,36.01,0,64.61,13.27,85.78,39.79,17.46,21.88,27.72,49.81,30.77,83.78h-234.44c1.96-20.14,6.58-38.22,13.86-54.21Zm206.59,155.12c-9.98,22.15-23.85,39.42-41.61,51.83-17.77,12.41-38.33,18.62-61.68,18.62s-43.93-6.21-61.69-18.62c-17.77-12.41-31.64-29.8-41.61-52.2-7.87-17.64-12.62-37.43-14.28-59.31h235.14c-1.68,22.37-6.43,42.27-14.27,59.68Zm313.89-155.12c9.97-21.9,23.84-38.93,41.61-51.1,17.76-12.16,39.05-18.25,63.88-18.25s45.5,6.09,63.51,18.25c18,12.17,31.87,29.2,41.61,51.1,7.1,15.99,11.61,34.07,13.52,54.21h-237.99c1.96-20.14,6.58-38.22,13.86-54.21Zm210.6,154.76c-9.74,22.39-23.61,39.79-41.61,52.2-18.01,12.41-39.42,18.62-64.24,18.62s-46.12-6.21-63.88-18.62c-17.77-12.41-31.52-29.8-41.24-52.2-7.68-17.64-12.31-37.43-13.93-59.31h238.84c-1.62,21.89-6.26,41.67-13.93,59.31Z"/>
</g>
</svg>