<?xml version="1.0" encoding="utf-8"?>
<svg version="1.1" id="Ebene_2" xmlns="http://www.w3.org/2000/svg" xmlns:xlink="http://www.w3.org/1999/xlink" x="0px" y="0px"
	 viewBox="0 0 2976.9 429" width="2976.9" height="429" style="enable-background:new 0 0 2976.9 429;" xml:space="preserve">
<g id="Ebene_1-2">
	<path d="M199,378.1c-15.2,12.8-34.8,19.2-58.7,19.2c-20,0-37.5-5.2-52.5-15.6c-15-10.4-26.7-24.8-35.1-43.2
		C44.4,320.2,40.2,299,40.2,275c0-17.2,2.4-33.1,7.2-47.6c4.8-14.6,11.6-27.3,20.4-38.1c8.8-10.8,19.4-19.2,31.8-25.2
		c12.4-6,26.2-9,41.4-9c22.8,0,41.6,6.5,56.3,19.5c14.8,13,23.6,29.7,26.4,50.1h40.2c-2-20.8-8.6-38.7-19.8-53.6
		c-11.2-15-25.5-26.7-42.9-35.1s-37.1-12.6-59-12.6c-20.4,0-39.2,3.7-56.3,11.1c-17.2,7.4-32.2,17.8-44.9,31.2
		C28,179.1,18,195,10.8,213.6S0,252.6,0,275c0,32.4,6.2,60,18.6,83c12.4,23,29.1,40.5,50.1,52.5c21,12,44.4,18,70.4,18
		c24.4,0,45.7-4.3,64.1-12.9c18.4-8.6,32.9-20.6,43.5-36c10.6-15.4,16.9-33.3,18.9-53.6h-39C223.4,348,214.2,365.3,199,378.1
		L199,378.1z"/>
	<polygon points="308.7,0.5 308.7,34.1 308.7,386.5 308.7,420.1 348.2,420.1 348.2,386.5 348.2,0.5 328.5,0.5 	"/>
	<path d="M579.6,136.6c-16-8.8-35.6-13.2-58.7-13.2c-23.2,0-43.1,4.5-59.6,13.5c-16.6,9-29.4,20.9-38.4,35.7
		c-9,14.8-14.3,31-15.9,48.6h39.6c0.8-12,3.9-23,9.3-33c5.4-10,13.7-18,24.9-24c11.2-6,25.4-9,42.5-9c20,0,36.2,5.3,48.6,15.9
		s18.6,24.9,18.6,42.9c0,7.2-1.6,13-4.8,17.4c-3.2,4.4-7.7,7.7-13.5,9.9c-5.8,2.2-12.7,4.1-20.7,5.7l-59.9,9
		c-17.6,2.8-33.4,7.7-47.4,14.7c-14,7-25.2,16.5-33.6,28.5c-8.4,12-12.6,26.8-12.6,44.4c0,17.6,4.3,32.2,12.9,44.9
		c8.6,12.8,20.2,22.7,34.8,29.7c14.6,7,31.1,10.5,49.4,10.5c24,0,44.1-5.3,60.5-15.9s28.2-23.9,35.4-39.8v47.4h38.4v-193
		c0-20.8-4.3-38.9-12.9-54.2C607.9,157.5,595.6,145.4,579.6,136.6L579.6,136.6z M590.4,306.8c0,16.8-3.8,32-11.4,45.6
		c-7.6,13.6-18.2,24.5-31.8,32.7c-13.6,8.2-29.4,12.3-47.4,12.3c-18,0-32.7-4.9-44-14.7c-11.4-9.8-17.1-22.9-17.1-39.3
		c0-11.2,2.7-20.7,8.1-28.5s13-14.1,22.8-18.9c9.8-4.8,20.9-8.2,33.3-10.2l50.9-9c10-2,18.2-4.3,24.6-6.9s10.4-5.7,12-9.3
		L590.4,306.8L590.4,306.8z"/>
	<path d="M873.9,378.1c-15.2,12.8-34.8,19.2-58.7,19.2c-20,0-37.5-5.2-52.5-15.6c-15-10.4-26.7-24.8-35.1-43.2
		c-8.4-18.4-12.6-39.6-12.6-63.5c0-17.2,2.4-33.1,7.2-47.6c4.8-14.6,11.6-27.3,20.4-38.1c8.8-10.8,19.4-19.2,31.8-25.2
		c12.4-6,26.2-9,41.4-9c22.8,0,41.6,6.5,56.3,19.5c14.8,13,23.6,29.7,26.4,50.1h40.2c-2-20.8-8.6-38.7-19.8-53.6
		c-11.2-15-25.5-26.7-42.9-35.1c-17.4-8.4-37.1-12.6-59-12.6c-20.4,0-39.2,3.7-56.3,11.1c-17.2,7.4-32.2,17.8-44.9,31.2
		c-12.8,13.4-22.8,29.4-30,47.9s-10.8,39.1-10.8,61.4c0,32.4,6.2,60,18.6,83c12.4,23,29.1,40.5,50.1,52.5c21,12,44.4,18,70.4,18
		c24.4,0,45.7-4.3,64.1-12.9c18.4-8.6,32.9-20.6,43.5-36c10.6-15.4,16.9-33.3,18.9-53.6h-39C898.3,348,889.1,365.3,873.9,378.1
		L873.9,378.1z"/>
	<path d="M1213.7,131.8H1164l-110.9,106.1c-4.8,4-9.5,8.2-14.1,12.6c-4.6,4.4-9.1,9-13.5,13.8V0.5h-39.6v419.6h39.6V309.2l31.1-29.3
		l124.7,140.2h53.3L1084.1,254L1213.7,131.8L1213.7,131.8z"/>
	<rect x="2576.1" y="16.1" width="44.9" height="59.9"/>
	<path d="M2976.9,256.6h-33c-2-22.3-7.6-42.4-16.8-60.4c-11.8-23-28.2-40.9-49.1-53.6c-21-12.8-44.8-19.2-71.6-19.2
		c-20.4,0-39.1,3.7-56,11.1c-17,7.4-31.7,17.9-44,31.5c-12.4,13.6-22,29.8-28.8,48.6c-4.8,13.2-7.9,27.3-9.3,42.1h-49.4V131.8H2579
		v124.8h-67.7V0.5h-39.6v181.6c-5.2-10.8-12.4-20.6-21.6-29.4c-9.2-8.8-20.3-15.9-33.3-21.3c-13-5.4-27.9-8.1-44.7-8.1
		c-20,0-38.1,3.8-54.2,11.4c-16.2,7.6-30.2,18.3-42,32.1c-11.8,13.8-20.8,29.9-27,48.3c-4.4,13-7.2,26.8-8.5,41.5h-48.2V131.8h-39
		v124.8h-156.4V131.8h-39v124.8h-106.7v-91.3h62.9v-33.6h-62.9V39.5h-39.6v92.3h-56.3v33.6h56.3v91.3h-167.4l-33.4-6.1
		c-10.8-2.4-20.6-5.4-29.4-9c-8.8-3.6-15.7-8.4-20.7-14.4c-5-6-7.5-13.8-7.5-23.4c0-14.8,6.1-26.6,18.3-35.4
		c12.2-8.8,28.3-13.2,48.3-13.2c22,0,39.7,5.1,53,15.3c13.4,10.2,20.9,24.3,22.5,42.3h39c-2-28-12.9-49.8-32.7-65.6
		c-19.8-15.8-46.3-23.7-79.4-23.7c-21.2,0-39.8,3.6-56,10.8c-16.2,7.2-28.9,17-38.1,29.4c-9.2,12.4-13.8,26.4-13.8,42
		c0,21,7.5,38,22.6,51.1h-56.6v33.9h149.9l12.9,2.6c19.2,3.6,33.9,9.1,44.1,16.5c10.2,7.4,15.3,18.3,15.3,32.7
		c0,16.8-6.8,30.2-20.4,40.2c-13.6,10-32,15-55.2,15c-25.6,0-45.6-6.3-60.2-18.9c-14.6-12.6-22.5-29.3-23.7-50.1H1505
		c1.2,19.6,6.7,37,16.5,52.1c9.8,15.2,23.7,27,41.7,35.4c18,8.4,39.4,12.6,64.1,12.6s44-3.9,61.1-11.7c17.2-7.8,30.4-18.5,39.6-32.1
		c9.2-13.6,13.8-29,13.8-46.2c0-15.2-3.5-28.1-10.5-38.7c-2.2-3.3-4.7-6.5-7.5-9.4h88.1V350c0,18.4,3.5,33.2,10.5,44.4
		c7,11.2,16.1,19.2,27.3,24c11.2,4.8,23.4,7.2,36.6,7.2c5.6,0,11.2-0.4,16.8-1.2c5.6-0.8,10.8-1.8,15.6-3v-33.6
		c-4,0.4-7.8,0.9-11.4,1.5s-7.6,0.9-12,0.9c-12.8,0-23.3-3.1-31.5-9.3s-12.3-17.7-12.3-34.5v-55.9h106.7v24.1
		c0,24.8,4.1,45.6,12.3,62.6c8.2,17,19.9,29.8,35.1,38.4c15.2,8.6,33.3,12.9,54.5,12.9c15.2,0,29-2.6,41.4-7.8
		c12.4-5.2,23.1-12.4,32.1-21.6c9-9.2,15.9-19.2,20.7-30v50.9h38.4V290.5h47.8c1.5,25,7.1,47,16.6,66.1c11.4,22.8,27,40.5,46.7,53
		c19.8,12.6,42.3,18.9,67.4,18.9c14.4,0,28.1-2.3,41-6.9s24.7-11.3,35.1-20.1c10.4-8.8,18.6-19.6,24.6-32.4v50.9h39.6V290.5h67.7
		v129.6h39.6V290.5h49c1.6,24.3,7.3,46,17.2,65.2c11.8,23,28.2,40.9,49.1,53.6s45,19.2,72.2,19.2c27.2,0,50.6-6.4,71.6-19.2
		c21-12.8,37.4-30.6,49.1-53.6c9.8-19.2,15.5-40.9,17.2-65.2h32.7L2976.9,256.6L2976.9,256.6z M2143.6,343.4
		c-6.6,16.4-16.3,29.5-29.1,39.3s-28.2,14.7-46.2,14.7c-18,0-31-3.6-41.4-10.8c-10.4-7.2-18-17.5-22.8-30.9
		c-4.8-13.4-7.2-29.3-7.2-47.6v-17.5h156.4C2153.3,310,2150,327.6,2143.6,343.4L2143.6,343.4z M2292.3,212.1c8.2-18,19.7-32,34.5-42
		c14.8-10,31.8-15,50.9-15c29.6,0,53,10.9,70.4,32.7c14.3,18,22.8,40.9,25.3,68.8h-192.5C2282.5,240.1,2286.3,225.3,2292.3,212.1
		L2292.3,212.1z M2461.9,339.5c-8.2,18.2-19.6,32.4-34.2,42.5c-14.6,10.2-31.5,15.3-50.6,15.3c-19.2,0-36.1-5.1-50.6-15.3
		c-14.6-10.2-26-24.5-34.2-42.9c-6.5-14.5-10.3-30.7-11.7-48.7h193C2472.2,308.9,2468.3,325.2,2461.9,339.5L2461.9,339.5z
		 M2719.6,212.1c8.2-18,19.6-32,34.2-42c14.6-10,32.1-15,52.5-15s37.4,5,52.1,15c14.8,10,26.2,24,34.2,42c5.8,13.1,9.5,28,11.1,44.5
		h-195.4C2709.9,240.1,2713.7,225.3,2719.6,212.1L2719.6,212.1z M2892.6,339.2c-8,18.4-19.4,32.7-34.2,42.9s-32.4,15.3-52.7,15.3
		c-20.4,0-37.9-5.1-52.5-15.3s-25.9-24.5-33.9-42.9c-6.3-14.5-10.1-30.7-11.5-48.7H2904C2902.6,308.5,2898.8,324.7,2892.6,339.2z"/>
</g>
</svg>
