<?xml version="1.0" encoding="UTF-8"?>
<svg id="Ebene_2" xmlns="http://www.w3.org/2000/svg" viewBox="0 0 1268.45 182.35" width="1268.45" height="182.35">
<defs><style>.cls-1{stroke-width:0px;}</style>
</defs>
<g id="Ebene_1-2">
<path class="cls-1" d="m84.79,160.9c-6.47,5.45-14.81,8.17-25.03,8.17-8.52,0-15.96-2.21-22.35-6.64-6.38-4.43-11.37-10.56-14.94-18.39-3.58-7.83-5.36-16.86-5.36-27.07,0-7.32,1.02-14.09,3.06-20.3,2.04-6.21,4.94-11.62,8.68-16.22,3.74-4.6,8.26-8.17,13.54-10.73,5.28-2.55,11.15-3.83,17.62-3.83,9.7,0,17.71,2.77,24.01,8.3,6.3,5.53,10.04,12.64,11.24,21.33h17.11c-.85-8.85-3.66-16.47-8.43-22.86-4.77-6.38-10.85-11.37-18.26-14.94s-15.79-5.36-25.16-5.36c-8.68,0-16.69,1.58-24.01,4.72-7.32,3.15-13.71,7.58-19.15,13.28-5.45,5.71-9.71,12.51-12.77,20.43-3.06,7.92-4.6,16.64-4.6,26.18,0,13.79,2.64,25.58,7.92,35.37,5.28,9.79,12.39,17.24,21.33,22.35,8.94,5.11,18.94,7.66,30.01,7.66,10.38,0,19.49-1.83,27.33-5.49,7.83-3.66,14-8.77,18.52-15.32,4.51-6.55,7.19-14.17,8.04-22.86h-16.6c-1.36,9.37-5.28,16.77-11.75,22.22Z"/><polygon class="cls-1" points="131.53 0 131.53 14.3 131.53 164.47 131.53 178.78 148.38 178.78 148.38 164.47 148.38 0 139.96 0 131.53 0"/><path class="cls-1" d="m246.97,57.97c-6.81-3.74-15.16-5.62-25.03-5.62s-18.35,1.92-25.41,5.75c-7.07,3.83-12.51,8.9-16.35,15.2-3.83,6.3-6.09,13.2-6.77,20.69h16.86c.34-5.11,1.66-9.79,3.96-14.05,2.3-4.25,5.83-7.66,10.6-10.22,4.76-2.55,10.81-3.83,18.13-3.83,8.51,0,15.41,2.26,20.69,6.77,5.28,4.51,7.92,10.6,7.92,18.26,0,3.06-.68,5.54-2.04,7.41-1.36,1.88-3.28,3.28-5.75,4.21-2.47.94-5.41,1.75-8.81,2.43l-25.54,3.83c-7.49,1.19-14.22,3.28-20.18,6.26-5.96,2.98-10.73,7.02-14.3,12.13-3.58,5.11-5.36,11.41-5.36,18.9s1.83,13.71,5.49,19.15c3.66,5.45,8.6,9.67,14.81,12.64,6.21,2.98,13.24,4.47,21.07,4.47,10.22,0,18.81-2.26,25.79-6.77,6.98-4.51,12-10.17,15.07-16.98v20.18h16.35v-82.24c0-8.85-1.83-16.56-5.49-23.11-3.66-6.55-8.9-11.7-15.71-15.45Zm4.6,72.53c0,7.15-1.62,13.62-4.85,19.41-3.24,5.79-7.75,10.43-13.54,13.92-5.79,3.49-12.51,5.24-20.18,5.24s-13.92-2.08-18.77-6.26c-4.85-4.17-7.28-9.75-7.28-16.73,0-4.76,1.15-8.81,3.45-12.13,2.3-3.32,5.53-6,9.71-8.04,4.17-2.04,8.89-3.49,14.17-4.34l21.71-3.83c4.25-.85,7.75-1.83,10.47-2.94,2.72-1.11,4.43-2.43,5.11-3.96v19.67Z"/><path class="cls-1" d="m372.36,160.9c-6.47,5.45-14.81,8.17-25.03,8.17-8.52,0-15.96-2.21-22.35-6.64-6.38-4.43-11.37-10.56-14.94-18.39-3.58-7.83-5.36-16.86-5.36-27.07,0-7.32,1.02-14.09,3.06-20.3,2.04-6.21,4.94-11.62,8.68-16.22,3.74-4.6,8.26-8.17,13.54-10.73,5.28-2.55,11.15-3.83,17.62-3.83,9.7,0,17.71,2.77,24.01,8.3,6.3,5.53,10.04,12.64,11.24,21.33h17.11c-.85-8.85-3.66-16.47-8.43-22.86-4.77-6.38-10.85-11.37-18.26-14.94-7.41-3.58-15.79-5.36-25.16-5.36-8.68,0-16.69,1.58-24.01,4.72-7.32,3.15-13.71,7.58-19.15,13.28-5.45,5.71-9.71,12.51-12.77,20.43-3.06,7.92-4.6,16.64-4.6,26.18,0,13.79,2.64,25.58,7.92,35.37,5.28,9.79,12.39,17.24,21.33,22.35,8.94,5.11,18.94,7.66,30.01,7.66,10.38,0,19.49-1.83,27.33-5.49,7.83-3.66,14-8.77,18.52-15.32,4.51-6.55,7.19-14.17,8.04-22.86h-16.6c-1.36,9.37-5.28,16.77-11.75,22.22Z"/><path class="cls-1" d="m517.17,55.93h-21.2l-47.25,45.21c-2.04,1.7-4.05,3.49-6,5.36-1.96,1.88-3.88,3.83-5.75,5.87V0h-16.86v178.78h16.86v-47.25l13.26-12.5,53.14,59.75h22.73l-64.16-70.79,55.22-52.05Z"/><rect class="cls-1" x="1097.67" y="6.64" width="19.15" height="25.54"/><path class="cls-1" d="m1268.45,109.12h-14.08c-.85-9.49-3.24-18.07-7.17-25.73-5.02-9.79-12-17.41-20.94-22.86-8.94-5.45-19.11-8.17-30.52-8.17-8.68,0-16.64,1.58-23.88,4.72-7.24,3.15-13.5,7.62-18.77,13.41-5.28,5.79-9.37,12.69-12.26,20.69-2.04,5.64-3.36,11.63-3.96,17.94h-21.07v-53.19h-16.86v53.19h-28.86V0h-16.86v77.38c-2.21-4.6-5.28-8.77-9.19-12.51-3.92-3.74-8.64-6.77-14.17-9.07-5.54-2.3-11.88-3.45-19.03-3.45-8.52,0-16.22,1.62-23.11,4.85-6.9,3.24-12.86,7.79-17.88,13.66-5.02,5.87-8.86,12.73-11.49,20.56-1.86,5.52-3.06,11.41-3.61,17.69h-20.52v-53.19h-16.6v53.19h-66.66v-53.19h-16.6v53.19h-45.46v-38.89h26.82v-14.3h-26.82V16.6h-16.86v39.33h-24.01v14.3h24.01v38.89h-71.33l-14.23-2.62c-4.6-1.02-8.77-2.3-12.51-3.83-3.75-1.53-6.68-3.58-8.81-6.13-2.13-2.55-3.19-5.87-3.19-9.96,0-6.3,2.59-11.32,7.79-15.07,5.19-3.74,12.04-5.62,20.56-5.62,9.36,0,16.9,2.17,22.6,6.51,5.7,4.34,8.89,10.34,9.58,18.01h16.6c-.85-11.92-5.49-21.24-13.92-27.97-8.43-6.72-19.71-10.09-33.84-10.09-9.03,0-16.98,1.53-23.88,4.6s-12.3,7.24-16.22,12.51c-3.92,5.28-5.87,11.24-5.87,17.88,0,8.93,3.21,16.18,9.62,21.78h-24.11v14.43h63.89l5.51,1.09c8.17,1.53,14.43,3.87,18.77,7.02,4.34,3.15,6.51,7.79,6.51,13.92,0,7.15-2.9,12.86-8.68,17.11-5.79,4.26-13.62,6.38-23.5,6.38-10.9,0-19.45-2.68-25.67-8.04-6.22-5.36-9.58-12.47-10.09-21.33h-16.35c.51,8.34,2.85,15.75,7.02,22.22,4.17,6.47,10.09,11.49,17.75,15.07,7.66,3.58,16.77,5.36,27.33,5.36s18.73-1.66,26.05-4.98c7.32-3.32,12.94-7.87,16.86-13.66,3.91-5.79,5.87-12.34,5.87-19.67,0-6.47-1.49-11.96-4.47-16.47-.94-1.42-2-2.76-3.19-4.02h37.54v25.35c0,7.83,1.49,14.13,4.47,18.9,2.98,4.77,6.85,8.17,11.62,10.22,4.76,2.04,9.96,3.06,15.58,3.06,2.38,0,4.76-.17,7.15-.51,2.38-.34,4.6-.77,6.64-1.28v-14.3c-1.7.17-3.32.38-4.85.64s-3.24.38-5.11.38c-5.45,0-9.92-1.32-13.41-3.96-3.49-2.64-5.24-7.53-5.24-14.69v-23.82h45.46v10.28c0,10.56,1.74,19.45,5.24,26.69,3.49,7.24,8.47,12.69,14.94,16.35,6.47,3.66,14.21,5.49,23.24,5.49,6.47,0,12.34-1.11,17.62-3.32,5.28-2.21,9.83-5.28,13.66-9.19,3.83-3.91,6.77-8.17,8.81-12.77v21.71h16.35v-55.23h20.37c.66,10.64,3.02,20.03,7.08,28.16,4.85,9.71,11.49,17.24,19.92,22.6s18.01,8.04,28.73,8.04c6.13,0,11.96-.98,17.49-2.94,5.53-1.96,10.51-4.81,14.94-8.56,4.43-3.74,7.92-8.34,10.47-13.79v21.71h16.86v-55.23h28.86v55.23h16.86v-55.23h20.9c.7,10.35,3.13,19.61,7.32,27.77,5.02,9.79,12,17.41,20.94,22.86,8.94,5.45,19.19,8.17,30.77,8.17s21.58-2.73,30.52-8.17c8.94-5.45,15.92-13.06,20.94-22.86,4.19-8.16,6.62-17.42,7.32-27.77h13.93v-14.43Zm-355.04,36.97c-2.81,6.98-6.94,12.56-12.39,16.73-5.45,4.17-12,6.26-19.67,6.26s-13.2-1.53-17.62-4.6c-4.43-3.06-7.66-7.45-9.71-13.15-2.04-5.7-3.06-12.47-3.06-20.3v-7.47h66.65c-.1,8.3-1.5,15.82-4.2,22.54Zm63.34-55.93c3.49-7.66,8.38-13.62,14.69-17.88,6.3-4.25,13.54-6.38,21.71-6.38,12.6,0,22.6,4.64,30.01,13.92,6.11,7.66,9.7,17.43,10.77,29.31h-82.02c.69-7.05,2.3-13.37,4.85-18.97Zm72.28,54.27c-3.49,7.75-8.34,13.79-14.56,18.13-6.22,4.34-13.41,6.51-21.58,6.51s-15.37-2.17-21.58-6.51c-6.22-4.34-11.07-10.43-14.56-18.26-2.75-6.17-4.41-13.09-5-20.75h82.26c-.59,7.83-2.25,14.79-4.99,20.88Zm109.82-54.27c3.49-7.66,8.34-13.62,14.56-17.88,6.21-4.25,13.66-6.38,22.35-6.38s15.92,2.13,22.22,6.38c6.3,4.26,11.15,10.22,14.56,17.88,2.49,5.59,4.06,11.92,4.73,18.97h-83.26c.69-7.05,2.3-13.37,4.85-18.97Zm73.68,54.14c-3.41,7.83-8.26,13.92-14.56,18.26-6.3,4.34-13.79,6.51-22.47,6.51s-16.13-2.17-22.35-6.51c-6.22-4.34-11.03-10.43-14.43-18.26-2.69-6.17-4.31-13.09-4.88-20.75h83.56c-.57,7.66-2.19,14.58-4.87,20.75Z"/></g></svg>