<svg width="3706" height="531" viewBox="0 0 3706 531" fill="none" xmlns="http://www.w3.org/2000/svg">
<g clip-path="url(#clip0_1702_966)">
<path d="M0 340.558C0 229.765 75.8447 152.433 175.484 152.433C256.534 152.433 317.507 201.509 326.43 278.098H278.097C270.662 226.791 231.252 190.355 174.74 190.355C97.4082 190.355 48.332 254.303 48.332 340.558C48.332 431.273 97.4082 492.99 173.253 492.99C233.483 492.99 274.379 459.529 281.815 404.505H328.661C319.737 479.606 262.482 530.913 171.766 530.913C75.1011 530.913 0 459.529 0 340.558Z" fill="#1D1D1B"/>
<path d="M434.241 0V520.503H388.139V0H434.241Z" fill="#1D1D1B"/>
<path d="M501.151 426.068C501.151 360.634 551.714 328.66 616.405 318.25L690.02 306.353C720.506 301.149 740.583 292.225 740.583 264.713C740.583 219.355 706.378 190.355 655.815 190.355C589.637 190.355 562.124 228.278 559.15 273.636H512.305C516.766 208.945 565.842 152.433 652.84 152.433C738.352 152.433 786.684 204.483 786.684 281.072V520.503H741.326V461.017C722.737 500.427 681.096 530.913 620.867 530.913C552.458 530.913 501.151 490.017 501.151 426.068ZM740.583 379.224V321.225C736.121 330.147 719.019 337.583 693.737 342.045L629.79 353.198C582.201 362.121 548.74 382.941 548.74 426.068C548.74 466.966 581.457 493.734 626.072 493.734C695.224 493.734 740.583 441.684 740.583 379.224Z" fill="#1D1D1B"/>
<path d="M846.161 340.558C846.161 229.765 922.005 152.433 1021.64 152.433C1102.69 152.433 1163.67 201.509 1172.59 278.098H1124.26C1116.82 226.791 1077.41 190.355 1020.9 190.355C943.569 190.355 894.493 254.303 894.493 340.558C894.493 431.273 943.569 492.99 1019.41 492.99C1079.64 492.99 1120.54 459.529 1127.98 404.505H1174.82C1165.9 479.606 1108.64 530.913 1017.93 530.913C921.262 530.913 846.161 459.529 846.161 340.558Z" fill="#1D1D1B"/>
<path d="M1541.4 520.503H1477.45L1320.55 345.019L1280.4 382.198V520.503H1234.3V0H1280.4V328.66C1291.55 317.507 1304.2 306.353 1316.09 295.2L1455.14 162.843H1514.63L1353.27 314.532L1541.4 520.503Z" fill="#1D1D1B"/>
<path d="M1896.82 406.735H1942.18C1945.16 458.786 1983.08 492.99 2047.77 492.99C2106.51 492.99 2142.95 466.222 2142.95 423.838C2142.95 387.402 2114.69 371.044 2067.85 362.121L2015.05 351.711C1948.87 339.07 1907.98 307.097 1907.98 254.303C1907.98 196.304 1963 152.433 2041.08 152.433C2123.61 152.433 2174.18 194.074 2180.13 263.226H2134.02C2128.82 218.611 2093.87 190.355 2038.85 190.355C1988.28 190.355 1954.82 214.894 1954.82 252.072C1954.82 288.507 1986.05 302.635 2027.69 310.814L2084.21 321.968C2148.15 333.865 2189.05 364.352 2189.05 420.12C2189.05 483.324 2134.77 530.913 2047.77 530.913C1955.57 530.913 1900.54 481.094 1896.82 406.735Z" fill="#1D1D1B"/>
<path d="M2272.33 434.248V202.997H2201.7V162.843H2272.33V49.0762H2319.18V162.843H2397.26V202.997H2319.18V431.273C2319.18 473.657 2340.74 485.555 2373.46 485.555C2383.87 485.555 2392.79 484.067 2402.46 481.837V521.99C2389.08 524.965 2377.18 527.195 2363.05 527.195C2313.97 527.195 2272.33 503.4 2272.33 434.248Z" fill="#1D1D1B"/>
<path d="M2446.33 389.634V162.843H2493.17V381.454C2493.17 449.863 2516.97 492.99 2582.4 492.99C2650.81 492.99 2690.22 432.761 2690.22 356.916V162.843H2736.32V520.503H2690.96V455.068C2672.37 496.708 2629.99 530.913 2572.74 530.913C2494.66 530.913 2446.33 482.58 2446.33 389.634Z" fill="#1D1D1B"/>
<path d="M2801.75 341.301C2801.75 232.74 2867.19 152.433 2965.34 152.433C3027.8 152.433 3070.19 186.638 3090.26 226.791V0H3137.11V520.503H3090.26V455.068C3065.72 504.888 3016.65 530.913 2963.85 530.913C2870.91 530.913 2801.75 456.556 2801.75 341.301ZM3092.49 340.558C3092.49 249.842 3045.65 190.355 2972.03 190.355C2898.42 190.355 2849.34 251.329 2849.34 341.301C2849.34 432.018 2897.68 492.99 2970.55 492.99C3043.42 492.99 3092.49 432.761 3092.49 340.558Z" fill="#1D1D1B"/>
<path d="M3221.86 19.333H3274.66V93.6909H3221.86V19.333ZM3271.68 162.843V520.503H3225.58V162.843H3271.68Z" fill="#1D1D1B"/>
<path d="M3337.11 341.301C3337.11 230.509 3407.75 152.433 3508.13 152.433C3608.51 152.433 3679.9 230.509 3679.9 341.301C3679.9 453.581 3608.51 530.913 3508.13 530.913C3407.75 530.913 3337.11 453.581 3337.11 341.301ZM3632.31 341.301C3632.31 251.329 3583.97 190.355 3508.13 190.355C3432.28 190.355 3384.7 251.329 3384.7 341.301C3384.7 432.018 3431.54 492.99 3508.13 492.99C3584.72 492.99 3632.31 432.018 3632.31 341.301Z" fill="#1D1D1B"/>
<mask id="mask0_1702_966" style="mask-type:luminance" maskUnits="userSpaceOnUse" x="1899" y="320" width="1807" height="44">
<path d="M3705.7 320.365H1899.61V363.686H3705.7V320.365Z" fill="white"/>
</mask>
<g mask="url(#mask0_1702_966)">
<path d="M1899.61 342.026H3705.7" stroke="#1D1D1B" stroke-width="65"/>
</g>
</g>
<defs>
<clipPath id="clip0_1702_966">
<rect width="3705.7" height="530.913" fill="white"/>
</clipPath>
</defs>
</svg>
