<?xml version="1.0" encoding="UTF-8"?>
<svg id="Ebene_1" data-name="Ebene 1" xmlns="http://www.w3.org/2000/svg" width="1080" height="1080" viewBox="0 0 1080 1080">
  <path d="M553.83709,910.90417c-62.18342,0-118.7793-14.82984-169.78762-44.43681-51.00833-29.62454-91.33355-72.37454-120.95809-128.25001-29.64211-55.87547-44.45438-122.66247-44.45438-200.39614,0-54.39951,8.48675-103.94946,25.49538-148.64983s41.04563-83.56721,72.14612-116.6005c31.1005-33.0333,67.52498-58.52867,109.30858-76.50371,41.7836-17.97503,86.95839-26.97133,135.54194-26.97133,53.43311,0,101.27868,10.20869,143.55427,30.60851,42.25802,20.39982,76.99569,48.81197,104.19545,85.25402s43.24199,79.91246,48.10913,130.4288h-93.28392c-7.76634-50.51634-29.87053-91.80796-66.31258-123.87486-36.44205-32.04932-82.33725-48.09156-137.72073-48.09156-36.93404,0-70.68774,7.29192-101.29625,21.8582-30.60851,14.58385-56.84187,35.22966-78.70007,61.93743-21.8582,26.72534-38.62084,58.05426-50.27035,94.00432-11.66708,35.95007-17.48305,74.8169-17.48305,116.6005,0,59.26665,10.19112,111.24138,30.59094,155.94175,20.39982,44.70037,49.05796,79.66647,85.99199,104.93343,36.91646,25.26696,80.15845,37.88286,129.7084,37.88286,58.30025,0,106.39181-15.28668,144.29225-45.8952,37.88286-30.60851,60.72504-73.11252,68.49138-127.52961h90.36715c-4.86714,48.58354-20.41739,91.57954-46.65074,128.98799s-61.44544,66.55858-105.65383,87.43281c-44.20839,20.87423-95.95469,31.32892-155.22135,31.32892Z"/>
</svg>