<svg width="65" height="10" viewBox="0 0 65 10" fill="none" xmlns="http://www.w3.org/2000/svg">
<path d="M3.74545 9.01871C5.38945 9.01871 6.31345 8.1187 6.45745 6.7747H5.25745C5.17345 7.5547 4.64545 8.0827 3.78145 8.0827C2.74945 8.0827 2.06545 7.2187 2.06545 5.9227C2.06545 4.6387 2.77345 3.7747 3.78145 3.7747C4.63345 3.7747 5.11345 4.33871 5.18545 5.05871H6.40945C6.28945 3.72671 5.29345 2.8267 3.79345 2.8267C2.13745 2.8267 0.841446 4.0387 0.841446 5.9107C0.841446 7.9267 2.06545 9.01871 3.74545 9.01871Z" fill="black"/>
<path d="M7.69363 0.426704V8.8267H8.88163V0.426704H7.69363Z" fill="black"/>
<path d="M12.221 9.01871C13.133 9.01871 13.757 8.62271 14.045 8.03471C14.033 8.21471 14.021 8.3827 14.021 8.5507V8.8267H15.149V5.16671C15.149 3.7147 14.369 2.8267 12.797 2.8267C11.321 2.8267 10.433 3.7387 10.373 4.8547H11.585C11.621 4.1827 12.077 3.7387 12.881 3.7387C13.541 3.7387 13.973 4.11071 13.973 4.66271C13.973 4.98671 13.817 5.1427 13.361 5.2147L12.269 5.3827C11.153 5.5507 10.217 6.04271 10.217 7.23071C10.217 8.34671 11.141 9.01871 12.221 9.01871ZM12.461 8.1067C11.897 8.1067 11.441 7.78271 11.441 7.20671C11.441 6.6307 11.945 6.3547 12.629 6.2227L13.325 6.0907C13.685 6.0187 13.889 5.94671 13.985 5.83871V6.6067C13.985 7.5067 13.325 8.1067 12.461 8.1067Z" fill="black"/>
<path d="M19.2962 9.01871C20.9402 9.01871 21.8642 8.1187 22.0082 6.7747H20.8082C20.7242 7.5547 20.1962 8.0827 19.3322 8.0827C18.3002 8.0827 17.6162 7.2187 17.6162 5.9227C17.6162 4.6387 18.3242 3.7747 19.3322 3.7747C20.1842 3.7747 20.6642 4.33871 20.7362 5.05871H21.9602C21.8402 3.72671 20.8442 2.8267 19.3442 2.8267C17.6882 2.8267 16.3922 4.0387 16.3922 5.9107C16.3922 7.9267 17.6162 9.01871 19.2962 9.01871Z" fill="black"/>
<path d="M25.7764 5.4907L28.2604 3.0187H26.7364L24.8764 4.9387C24.7324 5.0827 24.5644 5.2627 24.4324 5.4187V0.426704H23.2444V8.8267H24.4324V6.82271L24.9724 6.2947L26.9524 8.8267H28.5364L25.7764 5.4907Z" fill="black"/>
<path d="M33.9351 9.01871C35.4231 9.01871 36.3471 8.1907 36.3471 7.1347C36.3471 6.1507 35.6271 5.6227 34.5351 5.4187L33.7071 5.2627C33.0231 5.1307 32.7351 4.9267 32.7351 4.4947C32.7351 4.0387 33.1671 3.7387 33.8031 3.7387C34.5351 3.7387 35.0031 4.0987 35.0751 4.74671H36.2631C36.2031 3.5587 35.3031 2.8267 33.8511 2.8267C32.4951 2.8267 31.5471 3.5587 31.5471 4.5547C31.5471 5.4787 32.2311 6.04271 33.3711 6.25871L34.1751 6.41471C34.8471 6.54671 35.1711 6.79871 35.1711 7.23071C35.1711 7.77071 34.6791 8.1067 33.9351 8.1067C33.0591 8.1067 32.5671 7.6267 32.5311 6.8827H31.3431C31.4031 8.1667 32.3391 9.01871 33.9351 9.01871Z" fill="black"/>
<path d="M39.8322 8.9107C40.1322 8.9107 40.3962 8.8627 40.5762 8.8147V7.8547C40.4202 7.8787 40.2882 7.89071 40.1442 7.89071C39.5922 7.89071 39.2922 7.61471 39.2922 6.96671V3.9787H40.5762V3.0187H39.2922V1.0267H38.0922V3.0187H36.9162V3.9787H38.0922V7.11071C38.0922 8.40671 38.8242 8.9107 39.8322 8.9107Z" fill="black"/>
<path d="M43.7878 9.01871C44.6398 9.01871 45.2758 8.62271 45.5518 8.02271C45.5398 8.17871 45.5398 8.3587 45.5398 8.5147V8.8267H46.7038V3.0187H45.5278V6.3187C45.5278 7.4227 44.9998 8.07071 44.1238 8.07071C43.2598 8.07071 42.8998 7.4827 42.8998 6.4867V3.0187H41.6998V6.7147C41.6998 8.2027 42.5038 9.01871 43.7878 9.01871Z" fill="black"/>
<path d="M50.6851 9.01871C51.6331 9.01871 52.2811 8.52671 52.5571 8.02271C52.5331 8.17871 52.5331 8.3467 52.5331 8.5267V8.8267H53.7331V0.426704H52.5331V3.3067C52.5331 3.4747 52.5331 3.6427 52.5571 3.8227C52.2691 3.3307 51.6571 2.8267 50.7091 2.8267C49.1731 2.8267 48.0211 4.0507 48.0211 5.9347C48.0211 7.9387 49.1611 9.01871 50.6851 9.01871ZM50.9371 8.0827C49.9411 8.0827 49.2451 7.2307 49.2451 5.9227C49.2451 4.6387 49.9531 3.7747 50.9371 3.7747C51.9091 3.7747 52.6171 4.6027 52.6171 5.9227C52.6171 7.2307 51.9091 8.0827 50.9371 8.0827Z" fill="black"/>
<path d="M55.3287 1.9987H56.6487V0.654704H55.3287V1.9987ZM55.4007 3.0187V8.8267H56.5887V3.0187H55.4007Z" fill="black"/>
<path d="M60.804 9.01871C62.496 9.01871 63.708 7.8067 63.708 5.9227C63.708 4.0747 62.496 2.8267 60.804 2.8267C59.1 2.8267 57.9 4.0747 57.9 5.9227C57.9 7.8067 59.1 9.01871 60.804 9.01871ZM60.804 8.0827C59.772 8.0827 59.124 7.2427 59.124 5.9227C59.124 4.6027 59.796 3.7747 60.804 3.7747C61.812 3.7747 62.484 4.6027 62.484 5.9227C62.484 7.2427 61.836 8.0827 60.804 8.0827Z" fill="black"/>
<path fill-rule="evenodd" clip-rule="evenodd" d="M64.1715 6.46414L30.8831 6.46415V5.51415L64.1715 5.51414V6.46414Z" fill="black"/>
</svg>
