<svg width="1033" height="144" viewBox="0 0 1033 144" fill="none" xmlns="http://www.w3.org/2000/svg">
<path d="M0.843018 91.9479C0.843018 60.7479 22.443 40.5479 50.043 40.5479C75.043 40.5479 91.643 55.5479 93.643 77.7479H73.243C72.043 65.7479 64.043 56.3479 49.843 56.3479C33.043 56.3479 21.243 70.7479 21.243 92.1479C21.243 113.748 32.643 128.148 49.843 128.148C64.243 128.148 73.043 119.348 74.443 106.348H94.443C92.043 128.748 76.643 143.748 49.243 143.748C21.243 143.748 0.843018 125.548 0.843018 91.9479Z" fill="black"/>
<path d="M132.833 0.547852V140.548H113.033V0.547852H132.833Z" fill="black"/>
<path d="M524.549 78.9891C528.555 80.5182 538.038 82.3179 543.488 82.3179C726.852 82.3179 834.638 82.3179 1022.63 82.3179V99.2087H554.633C554.633 99.2087 520.543 77.46 524.549 78.9891Z" fill="black"/>
<path d="M150.033 113.948C150.033 94.1479 165.633 85.9479 184.233 83.1479L202.433 80.3479C210.033 79.1479 212.633 76.5479 212.633 71.1479C212.633 61.9479 205.433 55.7479 194.433 55.7479C181.033 55.7479 173.433 63.1479 172.833 74.3479H152.633C153.633 55.7479 168.433 40.5479 193.033 40.5479C219.233 40.5479 232.233 55.3479 232.233 79.5479V140.548H213.433V135.948C213.433 133.148 213.633 130.348 213.833 127.348C209.033 137.148 198.633 143.748 183.433 143.748C165.433 143.748 150.033 132.548 150.033 113.948ZM212.833 103.548V90.7479C211.233 92.5479 207.833 93.7479 201.833 94.9479L190.233 97.1479C178.833 99.3479 170.433 103.948 170.433 113.548C170.433 123.148 178.033 128.548 187.433 128.548C201.833 128.548 212.833 118.548 212.833 103.548Z" fill="black"/>
<path d="M248.033 91.9479C248.033 60.7479 269.633 40.5479 297.233 40.5479C322.233 40.5479 338.833 55.5479 340.833 77.7479H320.433C319.233 65.7479 311.233 56.3479 297.033 56.3479C280.233 56.3479 268.433 70.7479 268.433 92.1479C268.433 113.748 279.833 128.148 297.033 128.148C311.433 128.148 320.233 119.348 321.633 106.348H341.633C339.233 128.748 323.833 143.748 296.433 143.748C268.433 143.748 248.033 125.548 248.033 91.9479Z" fill="black"/>
<path d="M446.433 140.548H420.033L387.033 98.3479L378.033 107.148V140.548H358.233V0.547852H378.033V83.7479C380.233 81.1479 383.033 78.1479 385.433 75.7479L416.433 43.7479H441.833L400.433 84.9479L446.433 140.548Z" fill="black"/>
<path d="M493.233 108.148H513.033C513.633 120.548 521.833 128.548 536.433 128.548C548.833 128.548 557.033 122.948 557.033 113.948C557.033 106.748 551.633 102.548 540.433 100.348L527.033 97.7479C508.033 94.1479 496.633 84.7479 496.633 69.3479C496.633 52.7479 512.433 40.5479 535.033 40.5479C559.233 40.5479 574.233 52.7479 575.233 72.5479H555.433C554.233 61.7479 546.433 55.7479 534.233 55.7479C523.633 55.7479 516.433 60.7479 516.433 68.3479C516.433 75.5479 521.233 78.9479 532.633 81.1479L546.433 83.7479C564.633 87.1479 576.633 95.9479 576.633 112.348C576.633 129.948 561.233 143.748 536.433 143.748C509.833 143.748 494.233 129.548 493.233 108.148Z" fill="black"/>
<path d="M605.633 111.948V59.7479H586.033V43.7479H605.633V10.5479H625.633V43.7479H647.033V59.7479H625.633V109.548C625.633 120.348 630.633 124.948 639.833 124.948C642.233 124.948 644.433 124.748 647.033 124.348V140.348C644.033 141.148 639.633 141.948 634.633 141.948C617.833 141.948 605.633 133.548 605.633 111.948Z" fill="black"/>
<path d="M665.833 105.348V43.7479H685.833V101.548C685.833 118.148 691.833 127.948 706.233 127.948C720.833 127.948 729.633 117.148 729.633 98.7479V43.7479H749.233V140.548H729.833V135.348C729.833 132.748 729.833 129.748 730.033 127.148C725.433 137.148 714.833 143.748 700.633 143.748C679.233 143.748 665.833 130.148 665.833 105.348Z" fill="black"/>
<path d="M771.233 92.3479C771.233 60.9479 790.433 40.5479 816.033 40.5479C831.833 40.5479 842.033 48.9479 846.833 57.1479C846.433 54.1479 846.433 51.3479 846.433 48.5479V0.547852H866.433V140.548H846.433V135.548C846.433 132.548 846.433 129.748 846.833 127.148C842.233 135.548 831.433 143.748 815.633 143.748C790.233 143.748 771.233 125.748 771.233 92.3479ZM847.833 92.1479C847.833 70.1479 836.033 56.3479 819.833 56.3479C803.433 56.3479 791.633 70.7479 791.633 92.1479C791.633 113.948 803.233 128.148 819.833 128.148C836.033 128.148 847.833 113.948 847.833 92.1479Z" fill="black"/>
<path d="M893.033 4.35788H915.033V26.7579H893.033V4.35788ZM914.033 43.7479V140.548H894.233V43.7479H914.033Z" fill="black"/>
<path d="M935.833 92.1479C935.833 61.3479 955.833 40.5479 984.233 40.5479C1012.43 40.5479 1032.63 61.3479 1032.63 92.1479C1032.63 123.548 1012.43 143.748 984.233 143.748C955.833 143.748 935.833 123.548 935.833 92.1479ZM1012.23 92.1479C1012.23 70.1479 1001.03 56.3479 984.233 56.3479C967.433 56.3479 956.233 70.1479 956.233 92.1479C956.233 114.148 967.033 128.148 984.233 128.148C1001.43 128.148 1012.23 114.148 1012.23 92.1479Z" fill="black"/>
</svg>
