<?xml version="1.0" encoding="UTF-8"?>
<svg id="Ebene_2" data-name="Ebene 2" xmlns="http://www.w3.org/2000/svg" width="3268.40458" height="429" viewBox="0 0 3268.40458 429">
  <defs>
    <style>
      .cls-1 {
        fill: none;
        stroke: #000;
        stroke-miterlimit: 10;
        stroke-width: 42px;
      }
    </style>
  </defs>
  <g id="Ebene_1-2" data-name="Ebene 1">
    <g>
      <g>
        <path d="m143.40039,429c-26.00635,0-49.90332-5.7002-71.7002-17.1001-21.80615-11.3999-39.20605-28.59375-52.2002-51.6001C6.49707,337.30322,0,308.80322,0,274.7998c0-22.7998,3.69385-43.59375,11.1001-62.3999,7.39697-18.79688,17.7002-34.99658,30.8999-48.6001,13.2002-13.59375,28.69727-24.09375,46.5-31.5,17.79395-7.39648,36.90039-11.09961,57.30029-11.09961,22.7998,0,43.29346,4.40625,61.5,13.19971,18.19678,8.80322,33,21.10303,44.3999,36.8999,11.3999,15.80664,18.09375,34.70654,20.1001,56.7002h-53.3999c-2.40039-18.79688-9.90039-34.5-22.5-47.1001-12.6001-12.6001-29.7002-18.8999-51.30029-18.8999-13.60303,0-26.00635,2.80322-37.19971,8.3999-11.20312,5.60645-20.90625,13.5-29.1001,23.7002-8.20312,10.19971-14.3999,22.19971-18.6001,36-4.2002,13.7998-6.2998,28.70605-6.2998,44.69971,0,22.80029,3.79688,42.80664,11.3999,60,7.59375,17.20312,18.39355,30.50635,32.3999,39.90039,13.99707,9.40283,30.19678,14.09961,48.6001,14.09961,21.19678,0,38.59668-5.79346,52.19971-17.3999,13.59375-11.59668,21.79688-27.79688,24.6001-48.6001h51c-1.60303,20.80322-7.70605,39.20654-18.2998,55.2002-10.60303,16.00293-25.30322,28.5-44.1001,37.5-18.80615,9-41.3999,13.5-67.7998,13.5Z"/>
        <path d="m339.59326,420V0h51.6001v420h-51.6001Zm0-377.3999V0h25.80029v42.6001h-25.80029Zm0,377.3999v-42.6001h51.6001v42.6001h-51.6001Z"/>
        <path d="m562.18945,429c-18.40332,0-35.1001-3.6001-50.1001-10.7998-15-7.2002-27-17.40039-36-30.6001-9-13.2002-13.5-28.80029-13.5-46.80029,0-18.79688,4.39697-34.29346,13.2002-46.5,8.79346-12.19678,20.49365-21.8999,35.09961-29.09961,14.59717-7.2002,30.49707-12,47.7002-14.40039l61.7998-9.59961c7.59375-1.2002,13.5-2.89697,17.7002-5.1001,4.2002-2.19385,7.2002-5.29688,9-9.30029,1.7998-3.99365,2.7002-8.79346,2.7002-14.3999,0-15.99365-5.50342-28.39697-16.5-37.19971-11.00635-8.79395-24.90039-13.2002-41.7002-13.2002-14.80322,0-27.20605,2.3999-37.2002,7.2002-10.00293,4.7998-17.60596,11.69971-22.7998,20.69971-5.20312,9-8.00635,19.5-8.3999,31.5h-51.6001c.79688-17.59668,5.7002-33.99365,14.7002-49.19971,9-15.19727,22.09668-27.49707,39.2998-36.90039,17.19385-9.39355,37.7998-14.09961,61.7998-14.09961s44.40039,4.5,61.2002,13.5,29.59668,21.59961,38.3999,37.7998c8.79395,16.2002,13.2002,35.50293,13.2002,57.8999v189.6001h-49.2002v-39c-7.19971,14.80322-18.40283,26.50293-33.6001,35.1001-15.20605,8.59668-33.59961,12.8999-55.19971,12.8999Zm7.19971-40.2002c15.6001,0,29.40039-3.2998,41.40039-9.8999s21.49658-15.69385,28.5-27.2998c6.99365-11.59717,10.5-25.2002,10.5-40.80029v-42.59961c-1.60352,2.80273-5.1001,5.20312-10.5,7.19971-5.40039,2.00635-12.50635,3.80615-21.30029,5.3999l-42,7.80029c-11.20312,2.00635-21.40283,5.20312-30.6001,9.6001-9.20605,4.40625-16.40625,10.00293-21.59961,16.7998-5.20312,6.80615-7.80029,15.40332-7.80029,25.7998,0,14.80322,5.19385,26.50342,15.6001,35.1001,10.39697,8.60645,22.99707,12.8999,37.7998,12.8999Z"/>
        <path d="m910.18213,429c-26.00635,0-49.90332-5.7002-71.7002-17.1001-21.80615-11.3999-39.20605-28.59375-52.2002-51.6001-13.00293-22.99658-19.5-51.49658-19.5-85.5,0-22.7998,3.69385-43.59375,11.1001-62.3999,7.39697-18.79688,17.7002-34.99658,30.8999-48.6001,13.2002-13.59375,28.69727-24.09375,46.5-31.5,17.79395-7.39648,36.90039-11.09961,57.30029-11.09961,22.7998,0,43.29346,4.40625,61.5,13.19971,18.19678,8.80322,33,21.10303,44.3999,36.8999,11.3999,15.80664,18.09375,34.70654,20.1001,56.7002h-53.3999c-2.40039-18.79688-9.90039-34.5-22.5-47.1001-12.6001-12.6001-29.7002-18.8999-51.30029-18.8999-13.60303,0-26.00635,2.80322-37.19971,8.3999-11.20312,5.60645-20.90625,13.5-29.1001,23.7002-8.20312,10.19971-14.3999,22.19971-18.6001,36-4.2002,13.7998-6.2998,28.70605-6.2998,44.69971,0,22.80029,3.79688,42.80664,11.3999,60,7.59375,17.20312,18.39355,30.50635,32.3999,39.90039,13.99707,9.40283,30.19678,14.09961,48.6001,14.09961,21.19678,0,38.59668-5.79346,52.19971-17.3999,13.59375-11.59668,21.79688-27.79688,24.6001-48.6001h51c-1.60303,20.80322-7.70605,39.20654-18.2998,55.2002-10.60303,16.00293-25.30322,28.5-44.1001,37.5-18.80615,9-41.3999,13.5-67.7998,13.5Z"/>
        <path d="m1106.375,420V0h51.6001v253.7998c3.6001-3.99365,7.29395-7.89355,11.1001-11.69971,3.79688-3.79688,7.69678-7.5,11.69971-11.1001l98.40039-100.2002h64.7998l-186,181.80029v107.3999h-51.6001Zm184.2002,0l-113.3999-138.6001,35.3999-34.19971,148.19971,172.7998h-70.19971Z"/>
        <path d="m1776.57422,429c-26.00586,0-48.20605-4.40625-66.59961-13.2002-18.40332-8.79346-32.50293-21.09375-42.2998-36.8999-9.80664-15.79688-14.90625-33.8999-15.30078-54.2998h50.40039c.79688,19.60303,7.59375,35.20312,20.40039,46.7998,12.79688,11.60645,30.79688,17.3999,54,17.3999,19.99609,0,36.09375-4.19971,48.2998-12.59961,12.19629-8.40039,18.2998-19.99707,18.2998-34.80029,0-11.59668-4.00293-21.09375-12-28.5-8.00586-7.39697-20.80273-12.69385-38.40039-15.8999l-43.7998-8.3999c-26.80273-5.19385-48.20605-14.7002-64.2002-28.5-16.00293-13.80029-24-31.69678-24-53.7002,0-16.39697,4.80078-30.99365,14.40039-43.7998,9.59961-12.79688,22.89355-22.89404,39.90039-30.30029,16.99609-7.39648,36.2998-11.09961,57.89941-11.09961,34.7998,0,62.29688,8.09961,82.5,24.2998,20.19434,16.2002,31.09668,39.10303,32.7002,68.7002h-51c-2.00586-17.59717-8.90625-30.69385-20.7002-39.30029-11.80273-8.59668-27.50586-12.8999-47.09961-12.8999-17.20312,0-31.00293,3.80615-41.40039,11.3999-10.40625,7.60303-15.59961,17.60645-15.59961,30,0,7.60303,1.89355,14.1001,5.7002,19.5,3.79688,5.3999,9.2998,9.80615,16.5,13.2002,7.19922,3.40283,16.19922,6.10303,27,8.1001l45,8.3999c17.59668,3.20605,32.89648,8.30615,45.89941,15.2998,12.99414,7.00342,23.19434,16.10645,30.60059,27.30029,7.39648,11.20312,11.09961,24.80615,11.09961,40.7998,0,17.20312-4.70605,32.80322-14.09961,46.7998-9.40332,14.00635-22.90332,25.2002-40.5,33.6001-17.60645,8.3999-38.80371,12.6001-63.60059,12.6001Z"/>
        <path d="m2063.96875,424.7998c-14.40039,0-27.80664-2.60596-40.2002-7.7998-12.40332-5.19385-22.5-14.1001-30.2998-26.7002-7.7998-12.59961-11.7002-29.49365-11.7002-50.69971v-166.2002h-54v-42.6001h54V35.3999h51.60059v95.3999h60v42.6001h-60v160.80029c0,16.7998,3.89941,28.40625,11.69922,34.7998,7.80078,6.40332,18.09375,9.6001,30.90039,9.6001,3.59961,0,7.09668-.19678,10.5-.6001,3.39355-.39355,7.09668-.79688,11.09961-1.2002v44.40039c-5.20312,1.19971-10.60254,2.09961-16.19922,2.69971-5.60645.6001-11.40039.8999-17.40039.8999Z"/>
        <path d="m2260.16113,429c-22.40625,0-41.40039-4.40625-57-13.2002-15.60059-8.79346-27.40332-21.69336-35.40039-38.69971-8.00586-16.99707-12-37.69678-12-62.1001v-184.2002h51.60059v173.40039c0,18.40283,2.19336,33.8999,6.59961,46.5,4.39648,12.59961,11.49414,22.10596,21.2998,28.5,9.79688,6.40283,22.5,9.59961,38.10059,9.59961,15.99316,0,29.39941-3.8999,40.19922-11.69971,10.80078-7.80029,19.09766-18.99365,24.90039-33.6001,5.79395-14.59668,8.7002-32.29688,8.7002-53.1001v-159.6001h51v289.2002h-50.40039v-40.2002c-4.40625,10.40625-11.09961,19.30322-20.09961,26.7002-9,7.40625-19.30371,13.00293-30.90039,16.7998-11.60645,3.79688-23.80273,5.7002-36.59961,5.7002Z"/>
        <path d="m2601.55469,429c-25.2002,0-47.80273-6-67.7998-18-20.00684-12-35.90625-29.3999-47.7002-52.2002-11.80273-22.7998-17.7002-50.59668-17.7002-83.3999,0-21.99365,3.09375-42.2998,9.2998-60.8999,6.19727-18.6001,15.19727-34.89355,27-48.8999,11.79395-13.99707,25.99707-24.8999,42.60059-32.7002,16.59375-7.7998,35.09961-11.69971,55.5-11.69971,15.99316,0,30.19629,2.50293,42.59961,7.5,12.39355,5.00586,22.7998,11.20312,31.2002,18.59961,8.40039,7.40625,14.79395,14.90625,19.2002,22.5V0h51.59961v420h-51.59961v-40.2002c-5.20312,8.80322-12.40332,17.00635-21.60059,24.6001-9.20605,7.60303-20.00586,13.60303-32.39941,18-12.40332,4.39697-25.7998,6.6001-40.2002,6.6001Zm9-40.2002c17.19336,0,32.49414-4.69678,45.90039-14.09961,13.39648-9.39404,23.89648-22.59375,31.5-39.6001,7.59375-16.99707,11.39941-37.09717,11.39941-60.30029,0-34.39648-8.30566-61.7998-24.89941-82.19971-16.60352-20.3999-37.90332-30.6001-63.90039-30.6001-17.20312,0-32.50293,4.70605-45.90039,14.1001-13.40625,9.40283-23.90625,22.60303-31.5,39.6001-7.60254,17.00586-11.39941,36.8999-11.39941,59.69971,0,22.40625,3.69336,42.20654,11.09961,59.3999,7.39746,17.20312,17.79395,30.50635,31.2002,39.90039,13.39648,9.40283,28.89355,14.09961,46.5,14.09961Z"/>
        <path d="m2831.3457,76.2002V14.3999h60v61.80029h-60Zm4.80078,343.7998V130.7998h51.59961v289.2002h-51.59961Zm0-246.6001v-42.6001h25.7998v42.6001h-25.7998Zm0,246.6001v-42.6001h51.59961v42.6001h-51.59961Z"/>
        <path d="m3100.14258,429c-27.59961,0-52.10645-6.40332-73.5-19.2002-21.40332-12.79688-38.20312-30.79688-50.40039-54-12.20605-23.19336-18.2998-50.19336-18.2998-81,0-22.39648,3.49707-42.99365,10.5-61.7998,6.99414-18.79688,16.7998-35.1001,29.40039-48.8999,12.59961-13.80029,27.59961-24.39404,45-31.80029,17.39941-7.39648,36.49707-11.09961,57.2998-11.09961,27.59961,0,52.09668,6.50586,73.5,19.5,21.39355,13.00293,38.19336,31.10596,50.40039,54.2998,12.19629,23.20313,18.2998,49.7998,18.2998,79.7998,0,30.80664-6.10352,57.80664-18.2998,81-12.20703,23.20312-29.00684,41.20312-50.40039,54-21.40332,12.79688-45.90039,19.2002-73.5,19.2002Zm0-40.2002c18.39355,0,34.2002-4.7998,47.40039-14.3999,13.19922-9.6001,23.39941-22.99658,30.59961-40.19971,7.2002-17.19385,10.7998-36.99414,10.7998-59.40039,0-22.7998-3.59961-42.59961-10.7998-59.3999-7.2002-16.7998-17.50293-29.89697-30.90039-39.2998-13.40625-9.39404-29.09961-14.1001-47.09961-14.1001s-33.59961,4.70605-46.7998,14.1001c-13.2002,9.40283-23.50293,22.5-30.90039,39.2998-7.40625,16.80029-11.09961,36.6001-11.09961,59.3999,0,22.40625,3.59961,42.20654,10.7998,59.40039,7.2002,17.20312,17.40039,30.59961,30.59961,40.19971,13.2002,9.6001,28.99707,14.3999,47.40039,14.3999Z"/>
      </g>
      <line class="cls-1" x1="1653.37402" y1="276.6001" x2="3268.40458" y2="276.6001"/>
    </g>
  </g>
</svg>